<svg id="visual" viewBox="0 0 960 540" width="960" height="540" xmlns="http://www.w3.org/2000/svg" xmlns:xlink="http://www.w3.org/1999/xlink" version="1.1"><path d="M0 364L22.8 365.3C45.7 366.7 91.3 369.3 137 376.2C182.7 383 228.3 394 274 393.5C319.7 393 365.3 381 411.2 376.3C457 371.7 503 374.3 548.8 379.5C594.7 384.7 640.3 392.3 686 393.5C731.7 394.7 777.3 389.3 823 383.5C868.7 377.7 914.3 371.3 937.2 368.2L960 365L960 541L937.2 541C914.3 541 868.7 541 823 541C777.3 541 731.7 541 686 541C640.3 541 594.7 541 548.8 541C503 541 457 541 411.2 541C365.3 541 319.7 541 274 541C228.3 541 182.7 541 137 541C91.3 541 45.7 541 22.8 541L0 541Z" fill="#2438c7"></path><path d="M0 426L22.8 421.8C45.7 417.7 91.3 409.3 137 407.5C182.7 405.7 228.3 410.3 274 407.5C319.7 404.7 365.3 394.3 411.2 394.2C457 394 503 404 548.8 413.2C594.7 422.3 640.3 430.7 686 434.2C731.7 437.7 777.3 436.3 823 433.7C868.7 431 914.3 427 937.2 425L960 423L960 541L937.2 541C914.3 541 868.7 541 823 541C777.3 541 731.7 541 686 541C640.3 541 594.7 541 548.8 541C503 541 457 541 411.2 541C365.3 541 319.7 541 274 541C228.3 541 182.7 541 137 541C91.3 541 45.7 541 22.8 541L0 541Z" fill="#0053d6"></path><path d="M0 411L22.8 416.2C45.7 421.3 91.3 431.7 137 432.8C182.7 434 228.3 426 274 428.7C319.7 431.3 365.3 444.7 411.2 448.7C457 452.7 503 447.3 548.8 446.5C594.7 445.7 640.3 449.3 686 447.3C731.7 445.3 777.3 437.7 823 431.8C868.7 426 914.3 422 937.2 420L960 418L960 541L937.2 541C914.3 541 868.7 541 823 541C777.3 541 731.7 541 686 541C640.3 541 594.7 541 548.8 541C503 541 457 541 411.2 541C365.3 541 319.7 541 274 541C228.3 541 182.7 541 137 541C91.3 541 45.7 541 22.8 541L0 541Z" fill="#006be3"></path><path d="M0 472L22.8 465.2C45.7 458.3 91.3 444.7 137 444.3C182.7 444 228.3 457 274 457.2C319.7 457.3 365.3 444.7 411.2 443C457 441.3 503 450.7 548.8 456.5C594.7 462.3 640.3 464.7 686 459.3C731.7 454 777.3 441 823 441.3C868.7 441.7 914.3 455.3 937.2 462.2L960 469L960 541L937.2 541C914.3 541 868.7 541 823 541C777.3 541 731.7 541 686 541C640.3 541 594.7 541 548.8 541C503 541 457 541 411.2 541C365.3 541 319.7 541 274 541C228.3 541 182.7 541 137 541C91.3 541 45.7 541 22.8 541L0 541Z" fill="#0082ec"></path><path d="M0 483L22.8 484.2C45.7 485.3 91.3 487.7 137 484.8C182.7 482 228.3 474 274 473.5C319.7 473 365.3 480 411.2 484.2C457 488.3 503 489.7 548.8 486.5C594.7 483.3 640.3 475.7 686 471.5C731.7 467.3 777.3 466.7 823 466.3C868.7 466 914.3 466 937.2 466L960 466L960 541L937.2 541C914.3 541 868.7 541 823 541C777.3 541 731.7 541 686 541C640.3 541 594.7 541 548.8 541C503 541 457 541 411.2 541C365.3 541 319.7 541 274 541C228.3 541 182.7 541 137 541C91.3 541 45.7 541 22.8 541L0 541Z" fill="#2298f3"></path><path d="M0 481L22.8 480.3C45.7 479.7 91.3 478.3 137 479.3C182.7 480.3 228.3 483.7 274 484.5C319.7 485.3 365.3 483.7 411.2 481.7C457 479.7 503 477.3 548.8 479.3C594.7 481.3 640.3 487.7 686 492C731.7 496.3 777.3 498.7 823 499C868.7 499.3 914.3 497.7 937.2 496.8L960 496L960 541L937.2 541C914.3 541 868.7 541 823 541C777.3 541 731.7 541 686 541C640.3 541 594.7 541 548.8 541C503 541 457 541 411.2 541C365.3 541 319.7 541 274 541C228.3 541 182.7 541 137 541C91.3 541 45.7 541 22.8 541L0 541Z" fill="#46adf7"></path><path d="M0 522L22.8 522.3C45.7 522.7 91.3 523.3 137 520.3C182.7 517.3 228.3 510.7 274 506.7C319.7 502.7 365.3 501.3 411.2 502C457 502.7 503 505.3 548.8 505.8C594.7 506.3 640.3 504.7 686 504C731.7 503.3 777.3 503.7 823 503.5C868.7 503.3 914.3 502.7 937.2 502.3L960 502L960 541L937.2 541C914.3 541 868.7 541 823 541C777.3 541 731.7 541 686 541C640.3 541 594.7 541 548.8 541C503 541 457 541 411.2 541C365.3 541 319.7 541 274 541C228.3 541 182.7 541 137 541C91.3 541 45.7 541 22.8 541L0 541Z" fill="#69c1fa"></path></svg>